<?xml version="1.0" standalone="no"?>
<!DOCTYPE svg PUBLIC "-//W3C//DTD SVG 20010904//EN"
 "http://www.w3.org/TR/2001/REC-SVG-20010904/DTD/svg10.dtd">
<svg version="1.0" xmlns="http://www.w3.org/2000/svg"
 width="888.000000pt" height="888.000000pt" viewBox="0 0 888.000000 888.000000"
 preserveAspectRatio="xMidYMid meet">

<g transform="translate(0.000000,888.000000) scale(0.100000,-0.100000)"
fill="#FFFFFF" stroke="none">
<path d="M4265 8665 c-22 -8 -76 -18 -120 -21 -44 -4 -94 -12 -112 -20 -18 -7
-54 -16 -80 -19 -26 -4 -57 -13 -68 -20 -11 -7 -36 -16 -55 -20 -19 -4 -49
-16 -66 -26 -17 -10 -43 -19 -56 -19 -14 0 -31 -7 -38 -15 -7 -8 -21 -15 -31
-15 -43 0 -322 -163 -430 -252 -26 -21 -50 -38 -54 -38 -28 0 -317 -283 -370
-361 -16 -24 -51 -71 -78 -103 -26 -33 -57 -75 -68 -95 -11 -20 -31 -54 -44
-76 -43 -73 -125 -236 -125 -249 0 -8 -7 -19 -15 -26 -8 -7 -15 -20 -15 -29 0
-9 -7 -29 -16 -46 -8 -16 -20 -52 -26 -80 -6 -27 -15 -55 -20 -62 -5 -7 -14
-44 -19 -84 -5 -39 -14 -78 -20 -85 -5 -7 -17 -64 -24 -126 -8 -62 -19 -143
-24 -179 -7 -41 -9 -280 -6 -645 4 -477 7 -586 19 -619 8 -22 19 -39 23 -38 5
1 40 31 77 68 38 36 83 73 100 82 42 22 99 66 166 129 30 28 76 62 103 75 86
41 80 8 78 460 -2 445 8 602 46 748 14 53 29 113 33 133 9 49 129 281 193 378
67 100 154 214 198 258 46 47 176 153 209 170 14 7 34 21 45 30 36 31 109 79
169 110 98 53 436 168 519 177 28 3 54 8 59 11 21 13 388 5 493 -11 117 -17
264 -52 280 -66 5 -5 20 -9 33 -9 43 0 307 -130 393 -194 114 -83 166 -125
195 -153 16 -16 38 -35 49 -43 25 -18 160 -171 198 -226 43 -61 106 -161 117
-186 6 -13 14 -30 19 -38 16 -25 112 -286 116 -316 7 -47 26 -136 38 -184 8
-31 12 -195 13 -525 l1 -480 69 -48 c38 -26 80 -55 94 -65 60 -40 200 -150
257 -201 106 -97 136 -115 146 -88 8 24 -5 1372 -14 1389 -5 9 -9 45 -9 79 0
34 -4 76 -9 93 -12 39 -49 178 -63 231 -12 50 -43 134 -74 200 -12 28 -26 63
-29 77 -4 15 -13 32 -21 39 -8 6 -14 16 -14 22 0 45 -170 319 -277 445 -157
185 -476 446 -658 538 -22 11 -69 35 -105 53 -96 49 -98 50 -285 115 -27 10
-70 22 -95 26 -25 5 -67 16 -95 24 -27 8 -79 19 -115 25 -36 6 -85 15 -110 20
-75 17 -547 13 -595 -4z"/>
<path d="M4210 5830 c-19 -5 -53 -13 -75 -19 -22 -6 -60 -11 -85 -11 -25 0
-57 -6 -72 -14 -14 -8 -55 -17 -90 -21 -34 -4 -72 -13 -83 -20 -11 -7 -41 -16
-65 -20 -25 -4 -54 -13 -66 -20 -12 -8 -39 -17 -60 -21 -21 -4 -55 -15 -74
-25 -19 -11 -42 -19 -50 -19 -8 0 -28 -9 -45 -20 -16 -11 -40 -20 -51 -20 -12
0 -27 -6 -33 -14 -7 -8 -25 -18 -41 -21 -16 -3 -34 -12 -40 -20 -6 -8 -25 -17
-41 -20 -16 -4 -31 -10 -34 -15 -3 -5 -34 -23 -68 -40 -34 -17 -98 -57 -141
-90 -44 -33 -83 -60 -88 -60 -7 0 -65 -44 -203 -153 -74 -59 -373 -367 -389
-401 -9 -19 -38 -58 -66 -87 -27 -30 -50 -59 -50 -66 0 -6 -17 -33 -38 -60
-20 -26 -43 -59 -50 -73 -7 -14 -24 -43 -37 -65 -63 -105 -103 -182 -136 -260
-16 -38 -36 -82 -44 -97 -8 -14 -15 -31 -15 -38 0 -6 -9 -30 -19 -53 -11 -23
-22 -59 -26 -80 -4 -20 -11 -39 -15 -42 -5 -3 -14 -31 -20 -63 -7 -31 -18 -68
-25 -82 -7 -14 -16 -54 -20 -90 -4 -36 -12 -76 -17 -90 -6 -14 -14 -79 -18
-146 -4 -70 -13 -131 -21 -145 -11 -18 -14 -79 -14 -264 1 -280 10 -361 80
-705 20 -100 21 -104 38 -142 8 -18 28 -69 46 -113 18 -44 39 -93 47 -108 8
-16 14 -33 14 -39 0 -26 123 -271 187 -373 105 -167 130 -203 198 -285 38 -47
78 -96 86 -110 22 -34 168 -180 265 -265 43 -38 90 -79 104 -91 51 -46 79 -69
97 -81 10 -7 54 -36 98 -66 83 -56 89 -59 199 -116 36 -18 71 -40 77 -47 6 -8
18 -14 26 -14 8 0 29 -11 46 -23 18 -13 48 -30 67 -37 19 -7 63 -25 97 -41 34
-16 68 -29 76 -29 7 0 17 -3 21 -8 4 -4 11 -7 14 -8 28 -3 103 -28 108 -35 3
-5 17 -9 30 -9 14 0 54 -11 89 -25 69 -28 183 -53 375 -84 111 -18 534 -25
661 -12 167 18 301 39 414 67 148 37 345 103 373 125 14 10 33 19 42 19 21 0
192 80 202 94 3 5 14 11 23 12 9 1 24 9 33 17 10 8 46 29 83 46 36 17 90 49
120 71 29 22 72 49 94 61 57 31 125 88 240 200 55 54 148 145 206 201 116 114
192 205 264 318 26 41 55 86 65 100 10 14 35 59 56 100 20 41 59 110 86 152
26 43 48 84 48 91 0 7 6 21 13 32 8 11 21 40 30 65 8 25 25 70 37 100 255 654
232 1492 -57 2150 -82 185 -182 365 -277 493 -234 317 -400 483 -708 708 -152
111 -432 267 -509 284 -15 4 -33 13 -40 21 -6 8 -18 14 -26 14 -8 0 -29 7 -46
14 -55 26 -150 57 -199 66 -26 5 -56 13 -67 20 -11 6 -44 15 -73 20 -29 5 -75
16 -103 24 -27 8 -84 20 -125 26 -41 6 -95 15 -120 20 -56 11 -653 11 -700 0z
m638 -378 c41 -6 88 -15 105 -21 18 -5 39 -9 47 -9 51 0 163 -32 425 -122 75
-26 346 -158 360 -175 6 -7 31 -24 56 -37 48 -24 69 -38 232 -158 119 -86 393
-358 457 -452 24 -35 58 -83 75 -108 42 -60 144 -226 156 -253 5 -12 13 -29
19 -37 8 -13 43 -89 81 -175 24 -55 99 -284 99 -304 1 -9 7 -34 16 -56 8 -22
19 -73 24 -114 5 -41 16 -81 22 -89 21 -24 24 -597 4 -682 -8 -36 -20 -102
-26 -148 -6 -45 -17 -97 -24 -115 -8 -17 -17 -54 -21 -81 -4 -27 -13 -59 -20
-70 -7 -12 -16 -42 -19 -68 -4 -25 -14 -52 -21 -58 -8 -7 -15 -20 -15 -29 0
-9 -11 -38 -25 -66 -13 -27 -25 -60 -25 -71 0 -12 -6 -24 -14 -27 -7 -3 -16
-21 -20 -40 -4 -19 -13 -40 -21 -47 -8 -7 -15 -19 -15 -27 0 -17 -37 -79 -87
-148 -18 -24 -33 -48 -33 -54 0 -5 -48 -70 -106 -143 -100 -126 -434 -468
-456 -468 -6 0 -41 -24 -77 -53 -36 -29 -77 -58 -91 -65 -14 -7 -56 -32 -95
-57 -38 -24 -81 -49 -95 -55 -14 -6 -32 -17 -40 -24 -8 -8 -32 -19 -52 -26
-21 -6 -38 -15 -38 -19 0 -4 -25 -13 -55 -20 -30 -7 -57 -16 -60 -21 -3 -5
-24 -14 -45 -20 -22 -6 -40 -15 -40 -20 0 -5 -21 -12 -47 -15 -27 -4 -58 -13
-70 -21 -12 -8 -52 -18 -88 -23 -37 -5 -72 -14 -78 -19 -7 -6 -43 -13 -82 -17
-38 -4 -95 -16 -127 -27 -52 -17 -77 -19 -313 -13 -142 3 -261 8 -266 11 -5 3
-65 12 -135 20 -69 8 -134 19 -144 24 -9 5 -48 14 -86 20 -37 6 -73 15 -79 20
-6 5 -33 14 -60 21 -28 6 -55 16 -61 20 -6 5 -33 13 -62 19 -28 6 -56 18 -63
26 -6 8 -20 14 -30 14 -23 0 -263 123 -309 158 -19 15 -48 36 -66 47 -96 60
-206 143 -269 203 -11 10 -40 34 -65 53 -77 58 -214 209 -299 329 -21 30 -48
64 -60 74 -11 11 -21 24 -21 31 0 6 -14 24 -31 41 -27 26 -39 46 -63 104 -3 8
-15 29 -26 45 -11 17 -25 41 -31 55 -7 14 -28 59 -47 100 -19 41 -50 107 -68
146 -19 39 -39 95 -45 125 -6 30 -15 63 -20 74 -4 11 -15 58 -24 105 -9 47
-22 103 -29 125 -8 22 -19 78 -25 125 -6 47 -13 103 -16 125 -16 117 -16 347
1 457 9 62 20 145 23 183 4 39 14 97 23 130 9 33 26 98 38 145 25 102 34 127
70 205 16 33 45 98 65 145 21 47 41 92 46 100 5 8 31 58 58 110 27 52 59 104
71 115 12 11 33 42 47 69 14 27 54 78 90 115 36 36 83 89 104 117 22 28 76 82
122 120 45 37 104 87 130 111 78 68 187 148 288 209 152 93 331 190 374 204
22 7 78 26 125 42 104 36 244 71 370 93 52 8 104 20 115 25 50 25 455 33 603
12z"/>
<path d="M4483 5352 c-6 -4 -24 -25 -39 -47 -27 -39 -28 -44 -31 -210 -4 -199
4 -249 50 -292 42 -40 77 -47 140 -29 41 12 57 24 77 53 24 36 25 45 28 218 3
178 3 181 -23 232 -14 29 -36 59 -48 68 -23 16 -132 21 -154 7z"/>
<path d="M3410 5010 c-45 -11 -66 -38 -74 -97 -8 -61 22 -143 66 -184 25 -24
39 -29 82 -29 68 0 95 16 117 70 23 58 23 78 1 120 -41 78 -58 99 -90 114 -36
17 -49 18 -102 6z"/>
<path d="M5629 5002 c-17 -8 -38 -25 -75 -62 -41 -42 -57 -138 -31 -190 16
-32 78 -53 133 -45 70 10 133 101 134 192 0 67 -98 132 -161 105z"/>
<path d="M2986 4184 c-3 -114 -4 -210 0 -213 3 -3 150 -6 327 -6 l322 0 1
-767 c0 -423 3 -770 6 -773 2 -3 94 -6 204 -7 l199 -3 3 771 2 771 63 6 c34 4
178 7 320 7 143 0 263 2 268 6 5 3 9 97 9 210 l0 204 -858 0 -859 0 -7 -206z"/>
<path d="M2572 4173 c-26 -5 -67 -56 -76 -95 -13 -55 3 -87 68 -134 104 -76
180 -82 235 -18 25 27 31 44 31 79 0 24 -5 55 -11 69 -16 35 -82 76 -148 92
-58 14 -62 14 -99 7z"/>
<path d="M6386 4141 c-10 -10 -27 -22 -39 -25 -22 -6 -67 -81 -67 -111 0 -9 8
-28 17 -43 54 -87 91 -97 186 -53 36 17 71 31 77 31 6 0 22 12 35 26 34 36 34
107 2 155 -23 34 -23 34 -108 37 -74 2 -88 0 -103 -17z"/>
<path d="M4570 2525 l0 -1015 353 0 c193 0 519 0 722 0 204 -1 380 -1 393 0
l22 0 0 210 0 210 -522 2 -523 3 -3 803 -2 802 -220 0 -220 0 0 -1015z"/>
<path d="M2283 3112 c-17 -4 -47 -21 -66 -37 -32 -29 -33 -33 -33 -102 1 -65
4 -75 28 -99 38 -39 106 -49 303 -46 159 3 171 4 193 25 38 35 52 72 52 134 0
69 -5 77 -56 105 -35 19 -57 22 -214 24 -96 1 -189 -1 -207 -4z"/>
<path d="M6409 3097 c-48 -42 -62 -75 -56 -135 5 -46 12 -62 41 -90 31 -31 42
-36 108 -42 40 -4 137 -6 216 -5 175 2 188 9 213 104 24 90 13 119 -63 167
-36 23 -44 24 -235 24 -190 -1 -199 -2 -224 -23z"/>
<path d="M6359 2037 c-14 -7 -33 -18 -42 -26 -23 -18 -40 -87 -32 -128 8 -46
89 -106 173 -128 59 -15 65 -15 92 2 32 19 60 67 60 105 0 71 -13 99 -56 129
-24 16 -57 32 -74 35 -17 4 -33 11 -36 15 -7 12 -54 10 -85 -4z"/>
<path d="M2616 2011 c-69 -38 -96 -81 -96 -153 0 -55 2 -59 32 -78 53 -32 84
-34 146 -10 85 33 104 43 109 60 3 8 12 30 21 47 15 29 15 37 2 75 -9 25 -25
47 -38 54 -13 6 -29 17 -35 23 -20 20 -89 11 -141 -18z"/>
<path d="M5565 1231 c-88 -54 -94 -128 -19 -237 46 -67 98 -89 159 -68 57 19
84 58 85 122 0 38 -6 63 -23 90 -13 20 -26 45 -30 54 -10 27 -68 58 -107 58
-19 0 -48 -8 -65 -19z"/>
<path d="M3420 1215 c-43 -42 -52 -55 -71 -108 -24 -66 -24 -78 3 -123 28 -47
64 -62 129 -54 61 8 85 31 122 115 21 49 24 67 17 98 -16 72 -47 97 -120 97
-45 0 -60 -4 -80 -25z"/>
<path d="M4502 1164 c-7 -3 -24 -17 -38 -31 -24 -24 -26 -34 -35 -182 -14
-232 0 -334 50 -364 36 -21 121 -22 161 -2 57 29 65 60 68 265 4 204 -2 241
-47 284 -23 22 -40 28 -87 32 -33 2 -65 1 -72 -2z"/>
</g>
</svg>
