<?xml version="1.0" standalone="no"?>
<!DOCTYPE svg PUBLIC "-//W3C//DTD SVG 20010904//EN"
 "http://www.w3.org/TR/2001/REC-SVG-20010904/DTD/svg10.dtd">
<svg version="1.0" xmlns="http://www.w3.org/2000/svg"
 width="2048.000000pt" height="2048.000000pt" viewBox="0 0 2048.000000 2048.000000"
 preserveAspectRatio="xMidYMid meet">

<g transform="translate(0.000000,2048.000000) scale(0.100000,-0.100000)"
fill="#000000" stroke="none">
<path d="M9990 16034 c-14 -3 -41 -11 -60 -19 -19 -7 -72 -16 -117 -18 -52 -3
-90 -11 -105 -21 -12 -9 -39 -16 -59 -16 -42 0 -99 -18 -99 -31 0 -5 -15 -9
-33 -9 -18 0 -43 -7 -56 -16 -13 -9 -41 -21 -63 -26 -22 -5 -47 -15 -55 -23
-8 -8 -23 -15 -34 -15 -32 0 -256 -121 -272 -147 -4 -7 -12 -13 -18 -13 -11 0
-55 -30 -119 -81 -25 -20 -55 -40 -68 -43 -32 -10 -329 -310 -374 -377 -20
-29 -49 -67 -64 -84 -32 -33 -46 -54 -68 -102 -9 -17 -19 -33 -24 -35 -5 -1
-17 -20 -28 -41 -47 -93 -117 -235 -134 -272 -10 -22 -27 -61 -39 -86 -12 -25
-21 -59 -21 -75 0 -16 -7 -40 -16 -52 -8 -12 -19 -52 -24 -90 -4 -37 -15 -85
-24 -107 -8 -22 -15 -67 -16 -101 0 -33 -7 -83 -15 -110 -12 -41 -15 -148 -15
-663 0 -557 2 -618 17 -662 10 -27 21 -49 25 -49 4 0 37 29 74 65 36 36 80 73
97 82 38 19 152 110 187 148 14 15 50 40 80 56 100 52 90 -4 90 515 0 486 5
559 51 729 11 44 25 96 29 115 13 51 138 293 195 375 121 176 188 254 284 330
35 27 69 54 75 60 6 5 63 44 126 86 115 75 170 105 245 132 356 129 407 139
680 139 201 0 325 -14 470 -53 127 -34 156 -44 225 -74 222 -99 392 -217 560
-385 109 -110 158 -173 237 -300 25 -41 54 -87 64 -102 11 -15 19 -34 19 -42
0 -8 9 -35 20 -61 37 -86 79 -220 94 -300 33 -176 36 -234 36 -669 l0 -445 68
-46 c37 -25 81 -56 97 -68 58 -43 150 -112 155 -117 14 -14 150 -129 186 -157
24 -18 46 -28 53 -24 15 10 16 1328 1 1382 -6 18 -10 55 -10 82 0 26 -12 94
-26 150 -14 56 -30 118 -34 137 -29 119 -28 116 -85 242 -14 32 -28 71 -31 87
-4 16 -12 32 -20 35 -8 3 -14 12 -14 20 0 47 -168 316 -281 447 -56 66 -235
243 -278 277 -13 9 -37 30 -54 46 -30 26 -84 65 -226 158 -52 35 -72 46 -111
63 -8 3 -33 17 -55 30 -22 14 -51 29 -65 35 -14 6 -41 19 -61 30 -20 11 -44
20 -53 20 -9 0 -33 9 -53 20 -21 11 -48 20 -61 20 -13 0 -37 7 -54 16 -17 9
-54 20 -82 24 -28 5 -69 15 -91 24 -22 8 -60 15 -85 16 -25 0 -65 8 -90 17
-37 14 -91 17 -310 19 -146 1 -276 0 -290 -2z"/>
<path d="M9915 13191 c-22 -5 -53 -13 -68 -20 -16 -6 -56 -11 -90 -11 -43 0
-74 -6 -100 -20 -22 -12 -56 -20 -85 -20 -28 0 -62 -8 -85 -20 -20 -11 -52
-20 -71 -20 -18 0 -45 -9 -59 -20 -14 -11 -40 -20 -60 -20 -19 0 -45 -9 -60
-20 -14 -11 -36 -20 -50 -20 -13 0 -36 -9 -50 -20 -14 -11 -37 -20 -51 -20
-14 0 -34 -9 -43 -20 -10 -11 -28 -20 -40 -20 -13 0 -31 -9 -40 -20 -10 -11
-28 -20 -40 -20 -13 0 -31 -9 -40 -20 -10 -11 -25 -20 -34 -20 -9 0 -28 -9
-42 -20 -14 -11 -30 -20 -35 -20 -6 0 -45 -27 -86 -60 -42 -33 -80 -60 -86
-60 -6 0 -44 -27 -86 -60 -41 -33 -79 -60 -84 -60 -17 0 -430 -421 -430 -438
0 -9 -27 -46 -60 -82 -33 -36 -60 -72 -60 -81 0 -9 -18 -36 -40 -60 -22 -24
-40 -51 -40 -60 0 -9 -9 -24 -20 -34 -11 -10 -20 -23 -20 -29 0 -6 -15 -35
-34 -63 -19 -29 -38 -63 -42 -75 -4 -13 -15 -34 -25 -47 -11 -13 -19 -29 -19
-35 0 -11 -22 -60 -61 -138 -11 -20 -19 -47 -19 -59 0 -12 -7 -30 -16 -40 -9
-10 -18 -37 -21 -61 -3 -24 -12 -51 -20 -60 -8 -9 -17 -36 -20 -60 -3 -24 -14
-61 -24 -84 -10 -22 -19 -62 -19 -87 0 -26 -7 -64 -16 -85 -11 -24 -18 -76
-21 -152 -3 -67 -11 -131 -19 -154 -25 -65 -30 -316 -10 -502 28 -257 87 -545
135 -659 5 -11 18 -45 31 -75 12 -30 30 -73 41 -95 10 -22 19 -46 19 -53 0 -7
9 -30 19 -50 11 -20 43 -84 72 -142 28 -58 73 -137 100 -177 27 -40 49 -74 49
-77 0 -9 78 -117 135 -186 33 -40 70 -86 81 -104 31 -45 176 -192 274 -276 47
-40 94 -82 105 -94 11 -12 33 -30 49 -41 15 -11 39 -30 52 -42 14 -13 29 -23
35 -23 5 0 34 -18 63 -40 55 -41 97 -66 203 -121 35 -17 68 -38 74 -45 6 -8
19 -14 29 -14 10 0 22 -6 28 -13 6 -7 35 -24 64 -37 29 -12 77 -34 106 -46 29
-13 103 -40 165 -60 62 -20 144 -47 182 -60 314 -108 883 -134 1280 -58 150
28 310 69 370 94 11 4 38 13 61 19 22 6 62 22 88 36 26 14 54 25 62 25 19 0
198 90 202 101 2 5 12 9 22 9 10 0 25 6 33 14 7 8 45 30 84 50 64 32 161 91
173 106 3 3 21 15 41 27 49 28 172 130 234 193 28 28 63 63 80 78 158 142 315
321 401 456 26 39 54 82 63 96 10 14 35 59 56 100 21 41 56 103 77 136 45 73
110 225 166 390 100 293 144 563 145 899 1 534 -136 1047 -396 1480 -52 87
-100 159 -117 175 -3 3 -18 25 -34 50 -92 142 -379 439 -541 559 -55 41 -116
86 -135 101 -130 97 -452 280 -493 280 -7 0 -30 8 -52 19 -84 40 -136 61 -149
61 -8 0 -33 9 -57 20 -24 11 -57 20 -74 20 -16 0 -43 7 -59 15 -17 9 -55 20
-85 25 -31 4 -74 15 -96 24 -22 8 -63 15 -91 16 -28 0 -69 8 -90 17 -34 14
-85 17 -369 19 -181 1 -348 -1 -370 -5z m635 -389 c47 -5 110 -16 140 -25 30
-8 72 -18 94 -22 97 -17 381 -120 526 -192 85 -42 157 -79 160 -83 3 -4 28
-21 56 -36 178 -101 433 -314 586 -490 87 -100 99 -117 195 -262 120 -183 133
-204 133 -216 0 -7 9 -21 20 -31 11 -10 20 -28 20 -40 0 -12 9 -34 20 -48 11
-14 20 -31 20 -39 0 -8 9 -30 19 -51 10 -20 22 -49 25 -64 4 -16 13 -41 20
-58 20 -43 53 -153 61 -200 4 -21 12 -51 19 -65 7 -14 16 -56 19 -93 4 -37 13
-77 22 -90 13 -18 15 -71 15 -350 0 -239 -3 -334 -12 -350 -7 -12 -18 -65 -24
-117 -7 -52 -19 -113 -28 -135 -8 -22 -15 -58 -16 -79 0 -22 -7 -47 -16 -57
-9 -10 -19 -40 -22 -66 -3 -28 -12 -55 -23 -66 -11 -10 -19 -29 -19 -43 0 -14
-9 -37 -20 -51 -11 -14 -20 -38 -20 -53 0 -15 -9 -35 -20 -45 -11 -10 -20 -30
-20 -45 0 -15 -9 -35 -20 -45 -11 -10 -20 -28 -20 -40 0 -12 -9 -30 -20 -40
-11 -10 -20 -24 -20 -31 0 -7 -18 -35 -40 -63 -22 -28 -40 -56 -40 -62 0 -9
-73 -104 -100 -129 -3 -3 -25 -32 -49 -65 -63 -84 -358 -376 -423 -417 -29
-19 -71 -51 -93 -71 -22 -20 -48 -37 -57 -37 -9 0 -24 -7 -32 -16 -9 -8 -42
-29 -74 -46 -31 -17 -61 -37 -65 -44 -4 -8 -19 -14 -32 -14 -14 0 -29 -8 -35
-20 -6 -12 -21 -20 -35 -20 -13 0 -32 -8 -42 -19 -10 -10 -37 -21 -61 -24 -24
-3 -51 -12 -61 -21 -10 -9 -27 -16 -39 -16 -12 0 -29 -8 -39 -19 -11 -11 -38
-20 -66 -23 -26 -3 -56 -12 -65 -21 -9 -8 -45 -17 -80 -20 -34 -3 -70 -11 -79
-18 -8 -8 -52 -17 -97 -20 -45 -4 -96 -14 -114 -23 -73 -38 -711 -5 -870 45
-34 10 -76 19 -93 19 -16 0 -47 9 -69 20 -22 11 -48 20 -59 20 -10 0 -38 9
-62 20 -24 11 -55 20 -67 20 -13 0 -35 9 -49 20 -14 11 -35 20 -45 20 -11 0
-31 9 -45 20 -14 11 -33 20 -42 20 -10 0 -22 5 -27 10 -6 6 -43 27 -82 48
-118 62 -304 194 -451 321 -30 25 -63 53 -75 61 -56 39 -291 315 -342 402 -7
11 -25 34 -41 51 -26 29 -38 49 -57 97 -4 8 -15 29 -26 45 -11 17 -27 46 -36
65 -24 53 -68 146 -108 231 -19 42 -41 100 -47 130 -6 30 -15 63 -19 74 -5 11
-16 56 -25 100 -9 44 -22 103 -30 130 -13 45 -25 121 -40 245 -16 130 -16 361
0 471 9 63 19 139 21 169 3 30 13 89 24 130 10 41 28 113 40 160 24 99 33 124
70 205 15 33 44 98 65 145 20 47 41 92 46 100 5 8 31 58 58 110 27 52 59 104
71 115 12 11 33 41 46 67 13 26 56 80 95 120 39 40 85 92 101 115 34 47 282
261 402 347 151 108 453 278 526 295 19 5 73 23 120 39 88 32 246 72 360 92
36 6 79 15 96 21 79 25 454 31 634 11z"/>
<path d="M10168 12710 c-9 -6 -27 -29 -41 -53 -27 -46 -30 -76 -28 -319 0
-114 12 -154 55 -190 63 -53 164 -37 212 34 l29 43 0 193 c0 174 -2 194 -17
203 -10 6 -18 17 -18 25 0 9 -13 29 -29 45 -26 25 -36 29 -88 29 -32 0 -65 -5
-75 -10z"/>
<path d="M9100 12370 c-19 -5 -44 -19 -56 -33 -28 -33 -39 -113 -19 -143 8
-13 15 -33 15 -44 0 -12 19 -39 42 -62 41 -39 44 -40 100 -36 70 5 89 21 113
93 18 53 18 55 -1 92 -36 70 -65 108 -97 125 -35 19 -46 20 -97 8z"/>
<path d="M11297 12340 c-14 -11 -29 -20 -35 -20 -5 0 -21 -17 -36 -39 -24 -34
-27 -46 -24 -111 3 -66 5 -75 31 -94 20 -15 43 -20 82 -20 50 0 58 3 94 38 40
39 71 110 71 162 0 19 -13 39 -40 66 -48 45 -100 52 -143 18z"/>
<path d="M8670 11535 l0 -215 325 0 325 0 0 -775 0 -775 210 0 210 0 0 775 0
775 318 0 c234 0 321 3 330 12 9 9 12 70 12 215 l0 203 -865 0 -865 0 0 -215z"/>
<path d="M8211 11493 c-26 -31 -31 -46 -31 -90 0 -51 0 -52 58 -96 73 -56 77
-58 121 -68 105 -24 186 69 151 175 -16 49 -83 94 -158 106 -95 16 -107 14
-141 -27z"/>
<path d="M12084 11505 c-3 -8 -21 -19 -39 -25 -22 -7 -37 -21 -45 -40 -7 -17
-16 -30 -21 -30 -14 0 -10 -64 6 -102 8 -19 26 -43 40 -52 33 -22 95 -23 126
-3 13 8 46 23 72 32 60 22 87 56 87 106 0 46 -11 77 -39 107 -19 19 -32 22
-102 22 -60 0 -81 -4 -85 -15z"/>
<path d="M10250 9880 l0 -1020 750 0 750 0 0 215 0 215 -525 0 -525 0 0 805 0
805 -225 0 -225 0 0 -1020z"/>
<path d="M7990 10470 c-8 -5 -23 -10 -33 -10 -10 0 -34 -12 -53 -27 -28 -20
-34 -31 -30 -49 4 -13 2 -26 -4 -29 -5 -3 -10 -24 -10 -46 0 -31 7 -47 33 -75
42 -47 77 -53 305 -53 l173 -1 27 31 c43 51 51 71 52 129 0 60 -19 100 -49
100 -9 0 -21 4 -26 9 -32 28 -347 45 -385 21z"/>
<path d="M12098 10455 c-51 -34 -75 -98 -59 -159 12 -51 44 -90 85 -106 16 -6
112 -10 224 -10 184 0 198 1 227 22 26 17 34 33 46 82 18 79 15 99 -25 136
-61 58 -72 60 -275 60 -182 0 -187 -1 -223 -25z"/>
<path d="M12053 9396 c-71 -26 -105 -95 -84 -168 7 -21 15 -38 20 -38 4 0 16
-8 27 -18 36 -33 71 -51 130 -66 53 -14 61 -14 84 1 60 38 80 89 63 167 -7 31
-19 47 -53 72 -25 18 -60 36 -78 39 -18 4 -35 11 -38 16 -7 11 -30 10 -71 -5z"/>
<path d="M8350 9393 c-8 -3 -22 -11 -30 -18 -8 -7 -26 -15 -40 -19 -39 -10
-80 -83 -80 -144 0 -59 11 -73 75 -97 43 -17 46 -17 102 5 78 31 123 59 123
76 0 8 7 25 16 39 12 19 13 31 4 64 -17 65 -110 116 -170 94z"/>
<path d="M11245 8583 c-55 -36 -64 -51 -65 -104 0 -60 61 -166 111 -191 63
-33 124 -18 167 41 31 42 29 100 -5 165 -35 65 -52 84 -85 102 -39 20 -78 16
-123 -13z"/>
<path d="M9086 8549 c-25 -28 -46 -60 -46 -71 0 -11 -8 -33 -17 -48 -16 -27
-16 -31 2 -70 27 -60 57 -80 120 -80 66 0 96 22 135 101 62 122 20 219 -96
219 -49 0 -54 -2 -98 -51z"/>
<path d="M10145 8488 l-30 -32 0 -220 c0 -122 3 -233 7 -248 18 -62 137 -90
205 -48 62 38 68 62 68 285 0 192 -1 201 -23 238 -31 50 -48 57 -129 57 -63
-1 -70 -3 -98 -32z"/>
<path d="M11980 6311 c-19 -4 -45 -13 -57 -19 -12 -7 -40 -12 -63 -12 -23 0
-59 -9 -81 -20 -21 -11 -58 -30 -81 -42 -84 -42 -218 -163 -218 -195 0 -5 -9
-16 -20 -26 -11 -9 -20 -25 -20 -35 0 -11 -9 -27 -20 -37 -11 -10 -20 -29 -20
-42 0 -14 -9 -36 -20 -50 -11 -14 -20 -38 -20 -53 0 -15 -7 -44 -15 -63 -36
-86 -10 -303 50 -427 57 -120 70 -138 154 -220 143 -141 300 -206 521 -217
299 -15 589 137 711 372 71 136 84 193 84 355 0 158 -12 213 -75 344 -77 162
-278 326 -438 356 -29 5 -62 15 -75 21 -25 14 -245 22 -297 10z m271 -285
c126 -44 197 -110 269 -251 l40 -78 0 -123 c0 -106 -3 -128 -20 -156 -11 -18
-20 -43 -20 -55 0 -30 -174 -203 -204 -203 -13 0 -35 -9 -49 -20 -23 -18 -41
-21 -150 -21 l-125 -1 -86 42 c-142 69 -219 174 -252 341 -16 81 -16 93 0 168
48 240 214 379 456 380 54 0 94 -6 141 -23z"/>
<path d="M13725 6313 c-11 -3 -29 -12 -40 -19 -11 -8 -40 -14 -66 -14 -32 0
-53 -6 -69 -20 -13 -11 -35 -20 -50 -20 -15 0 -39 -9 -53 -20 -14 -11 -28 -20
-31 -20 -33 0 -216 -170 -216 -200 0 -10 -6 -23 -14 -29 -20 -17 -66 -107 -66
-129 0 -9 -8 -29 -17 -42 -15 -21 -19 -52 -21 -182 -5 -213 17 -298 114 -443
100 -152 233 -246 414 -297 71 -19 109 -23 225 -23 168 0 253 18 369 79 84 44
196 138 196 164 0 9 -30 45 -67 79 -86 80 -116 83 -192 23 -28 -22 -58 -40
-68 -40 -9 0 -26 -9 -38 -20 -20 -18 -36 -21 -156 -21 -129 -1 -137 0 -202 30
-140 63 -216 143 -261 275 -52 150 -32 305 55 436 61 90 133 140 253 175 108
32 289 4 378 -57 14 -10 30 -18 35 -18 5 0 16 -9 26 -20 11 -13 29 -20 53 -20
31 0 46 10 110 72 52 50 74 78 72 92 -7 48 -246 196 -317 196 -17 0 -48 7 -69
16 -38 16 -247 29 -287 17z"/>
<path d="M4552 6288 c-12 -6 -25 -22 -28 -34 -8 -33 -1 -191 9 -201 5 -4 105
-9 223 -11 l214 -3 0 -32 c0 -17 7 -50 16 -74 15 -39 15 -46 0 -94 -15 -45
-17 -100 -15 -468 3 -534 -10 -501 191 -501 100 0 108 1 119 22 9 17 11 151 7
533 -3 281 -3 535 0 563 l5 52 221 2 221 3 3 118 3 117 -28 1 c-15 0 -253 2
-528 3 -275 2 -525 7 -555 10 -34 3 -64 1 -78 -6z"/>
<path d="M6058 6283 l-37 -15 6 -452 c9 -575 9 -626 -1 -773 -8 -107 -7 -125
8 -147 16 -25 19 -26 131 -26 65 0 125 5 140 12 l25 11 -2 686 -3 686 -30 15
c-43 21 -190 23 -237 3z"/>
<path d="M6795 6288 c-11 -6 -23 -15 -26 -20 -3 -5 -6 -307 -5 -671 1 -645 2
-663 21 -689 24 -33 55 -40 165 -36 78 3 85 5 98 28 10 20 12 105 6 438 -4
226 -4 412 -1 412 3 0 19 -22 36 -50 17 -27 40 -59 51 -70 11 -11 20 -28 20
-38 0 -9 15 -40 33 -67 19 -28 59 -95 91 -150 31 -55 61 -107 66 -115 5 -8 28
-49 51 -90 55 -97 80 -120 138 -127 90 -10 82 -20 366 477 65 113 124 212 131
220 12 12 14 6 14 -43 0 -33 7 -71 16 -88 13 -27 15 -66 10 -287 -3 -142 -8
-283 -12 -315 -7 -69 8 -114 43 -128 38 -14 219 -11 231 4 7 8 9 96 7 257 -2
135 -4 446 -4 691 l-1 447 -32 7 c-43 10 -174 10 -216 0 -23 -5 -41 -19 -57
-44 -27 -42 -89 -152 -110 -197 -7 -17 -21 -36 -29 -44 -9 -7 -16 -23 -16 -35
0 -12 -6 -28 -14 -34 -8 -7 -26 -36 -42 -66 -15 -30 -35 -62 -46 -71 -10 -10
-18 -27 -18 -38 0 -12 -9 -29 -20 -39 -11 -9 -20 -25 -20 -35 0 -11 -9 -27
-20 -37 -11 -10 -20 -30 -20 -45 0 -15 -9 -35 -20 -45 -11 -10 -20 -28 -20
-40 0 -14 -11 -30 -27 -41 -16 -9 -34 -26 -42 -36 -16 -23 -10 -32 -209 312
-71 124 -154 266 -182 315 -29 50 -63 108 -75 130 -51 95 -51 95 -200 101 -58
3 -97 0 -110 -8z"/>
<path d="M8825 6286 c-56 -25 -67 -84 -39 -216 11 -54 13 -95 8 -150 -4 -41
-8 -237 -9 -435 0 -198 -5 -408 -9 -466 -8 -101 -8 -107 13 -128 l21 -21 523
2 522 3 3 109 c2 68 -1 113 -8 121 -9 11 -90 14 -380 17 -202 2 -372 7 -376
11 -9 9 -12 322 -3 331 3 3 146 6 318 7 258 1 315 4 327 16 10 10 14 38 14 98
0 83 0 84 -32 107 -32 22 -39 23 -243 22 -115 0 -230 -2 -255 -4 -49 -4 -122
8 -131 22 -3 4 -5 74 -4 155 l0 148 55 8 c30 4 195 6 367 5 171 -2 314 0 318
4 9 8 9 217 1 225 -3 3 -202 6 -443 8 -241 1 -458 5 -483 9 -29 4 -56 1 -75
-8z"/>
<path d="M10254 6281 c-18 -11 -35 -24 -38 -30 -4 -6 -8 -312 -9 -681 -1 -654
-1 -670 18 -685 17 -13 85 -15 500 -13 294 1 489 5 503 11 21 10 22 16 22 107
0 61 -5 102 -12 113 -12 14 -51 17 -358 19 -190 2 -351 7 -358 11 -10 7 -13
115 -12 535 1 290 1 546 0 568 0 40 -1 42 -37 48 -21 4 -72 9 -113 12 -63 4
-80 2 -106 -15z"/>
<path d="M14726 6286 c-17 -8 -33 -22 -37 -32 -4 -11 -8 -319 -8 -685 -1 -608
0 -668 16 -680 22 -19 258 -26 278 -9 12 10 15 48 15 194 l0 182 91 102 c50
56 99 102 108 102 18 0 46 -33 201 -240 214 -285 255 -334 280 -341 31 -9 267
-11 297 -3 38 10 33 30 -23 103 -30 40 -135 178 -233 309 -98 130 -189 248
-203 262 -26 27 -88 122 -88 135 0 9 52 66 214 235 180 187 316 338 316 349 0
18 -69 24 -204 18 l-130 -6 -208 -213 c-114 -117 -208 -219 -208 -228 0 -23
-84 -108 -150 -151 l-60 -39 0 303 c0 166 -4 307 -8 313 -17 26 -210 41 -256
20z"/>
</g>
</svg>
